<?xml version="1.0" encoding="iso-8859-1"?>
<!-- Generator: Adobe Illustrator 18.0.0, SVG Export Plug-In . SVG Version: 6.00 Build 0)  -->
<!DOCTYPE svg PUBLIC "-//W3C//DTD SVG 1.1//EN" "http://www.w3.org/Graphics/SVG/1.1/DTD/svg11.dtd">
<svg version="1.1" id="Capa_1" xmlns="http://www.w3.org/2000/svg" xmlns:xlink="http://www.w3.org/1999/xlink" x="0px" y="0px"
	 viewBox="0 0 348.399 348.399" style="enable-background:new 0 0 348.399 348.399;" xml:space="preserve">
<g>
	<g>
		<path d="M132.392,179.817c4.21-5.079,6.745-11.595,6.745-18.691c0-8.663-3.777-16.458-9.769-21.832
			c5.992-5.374,9.769-13.169,9.769-21.832c0-13.581-9.28-25.032-21.831-28.355v-21.43c0-10.482-8.329-19.031-18.713-19.44
			C98.34,48.211,81.226,48.22,81.226,31.6c0-9.153,7.446-16.6,16.649-16.6h0.001c0.108,0,8.396,0.181,12.236,5.257
			c7.368,9.744,17.809,11.454,27.247,4.46c3.329-2.465,4.028-7.162,1.563-10.49c-2.467-3.328-7.162-4.028-10.491-1.563
			c-2.274,1.684-3.495,2.327-6.355-1.454C113.757,0.211,99.366,0.008,97.824,0C80.401,0,66.226,14.176,66.226,31.6
			s14.175,31.599,31.599,31.599c2.471,0,4.482,2.009,4.482,4.479v21.43c-12.552,3.323-21.832,14.774-21.832,28.355
			c0,8.663,3.778,16.458,9.769,21.832c-5.991,5.374-9.769,13.169-9.769,21.832c0,7.097,2.535,13.612,6.746,18.691
			c-22.429,8.992-38.318,30.941-38.318,56.545c0,33.582,27.322,60.902,60.904,60.902c33.582,0,60.903-27.32,60.903-60.902
			C170.709,210.759,154.82,188.81,132.392,179.817z M95.474,117.462c0-7.893,6.414-14.313,14.303-14.329
			c0.01,0,0.019,0.001,0.029,0.001c0.01,0,0.019-0.001,0.029-0.001c7.889,0.016,14.303,6.437,14.303,14.329
			c0,7.902-6.429,14.332-14.331,14.332C101.903,131.794,95.474,125.364,95.474,117.462z M95.474,161.126
			c0-7.902,6.429-14.332,14.332-14.332c7.902,0,14.331,6.43,14.331,14.332c0,7.902-6.429,14.331-14.331,14.331
			C101.903,175.457,95.474,169.028,95.474,161.126z M109.806,282.265c-25.312,0-45.904-20.592-45.904-45.902
			c0-25.313,20.593-45.905,45.904-45.905c25.311,0,45.903,20.593,45.903,45.905C155.709,261.673,135.117,282.265,109.806,282.265z"
			/>
		<path d="M261.181,230.953c4.21-5.079,6.745-11.595,6.745-18.692c0-8.662-3.777-16.457-9.769-21.831
			c5.991-5.374,9.769-13.169,9.769-21.832c0-13.582-9.28-25.033-21.831-28.357v-21.428c0-10.481-8.329-19.032-18.713-19.44
			c-0.253-0.025-17.367-0.817-17.367-16.639c0-9.153,7.446-16.6,16.598-16.6c2.325,0.017,9.065,0.996,12.287,5.258
			c7.369,9.743,17.81,11.45,27.248,4.46c3.328-2.466,4.027-7.163,1.562-10.491c-2.466-3.328-7.163-4.025-10.491-1.561
			c-2.275,1.684-3.494,2.327-6.354-1.455c-8.317-10.999-22.693-11.203-24.251-11.21c-17.423,0-31.599,14.176-31.599,31.6
			s14.175,31.6,31.599,31.6c2.471,0,4.482,2.01,4.482,4.479v21.428c-12.552,3.323-21.832,14.774-21.832,28.357
			c0,8.663,3.778,16.458,9.769,21.832c-5.991,5.374-9.769,13.169-9.769,21.831c0,7.098,2.535,13.613,6.746,18.692
			c-22.429,8.992-38.318,30.941-38.318,56.545c0,33.581,27.322,60.901,60.904,60.901c33.582,0,60.903-27.32,60.903-60.901
			C299.498,261.895,283.609,239.945,261.181,230.953z M224.263,168.598c0-7.893,6.414-14.314,14.303-14.33
			c0.01,0,0.019,0.001,0.029,0.001c0.01,0,0.019-0.001,0.029-0.001c7.889,0.016,14.302,6.438,14.302,14.33
			c0,7.902-6.429,14.332-14.331,14.332C230.692,182.93,224.263,176.5,224.263,168.598z M224.263,212.261
			c0-7.902,6.429-14.331,14.332-14.331c7.902,0,14.331,6.429,14.331,14.331c0,7.902-6.429,14.332-14.331,14.332
			C230.692,226.593,224.263,220.163,224.263,212.261z M238.595,333.399c-25.312,0-45.904-20.591-45.904-45.901
			c0-25.313,20.593-45.905,45.904-45.905c25.311,0,45.903,20.593,45.903,45.905C284.498,312.809,263.906,333.399,238.595,333.399z"
			/>
	</g>
</g>
<g>
</g>
<g>
</g>
<g>
</g>
<g>
</g>
<g>
</g>
<g>
</g>
<g>
</g>
<g>
</g>
<g>
</g>
<g>
</g>
<g>
</g>
<g>
</g>
<g>
</g>
<g>
</g>
<g>
</g>
</svg>
