<?xml version="1.0" encoding="iso-8859-1"?>
<!-- Generator: Adobe Illustrator 17.1.0, SVG Export Plug-In . SVG Version: 6.00 Build 0)  -->
<!DOCTYPE svg PUBLIC "-//W3C//DTD SVG 1.1//EN" "http://www.w3.org/Graphics/SVG/1.1/DTD/svg11.dtd">
<svg version="1.1" id="Capa_1" xmlns="http://www.w3.org/2000/svg" xmlns:xlink="http://www.w3.org/1999/xlink" x="0px" y="0px"
	 viewBox="0 0 207.426 207.426" style="enable-background:new 0 0 207.426 207.426;" xml:space="preserve">
<path d="M200.29,188.391l-5.949-109.019c-0.991-18.172-15.213-32.37-32.421-32.37h-10.455C151.051,21.015,129.796,0,103.713,0
	S56.376,21.015,55.962,47.002H45.507c-17.209,0-31.43,14.199-32.421,32.37L7.137,188.391c-0.564,10.331,7.205,19.036,16.988,19.036
	h159.177C193.085,207.426,200.854,198.722,200.29,188.391z M103.714,8c21.672,0,39.338,17.427,39.751,39.002H63.962
	C64.375,25.427,82.042,8,103.714,8z M65.442,97.27c0,3.038-2.463,5.5-5.5,5.5s-5.5-2.462-5.5-5.5V72.953c0-3.038,2.463-5.5,5.5-5.5
	s5.5,2.462,5.5,5.5V97.27z M152.984,97.27c0,3.038-2.463,5.5-5.5,5.5s-5.5-2.462-5.5-5.5V72.953c0-3.038,2.463-5.5,5.5-5.5
	s5.5,2.462,5.5,5.5V97.27z"/>
<g>
</g>
<g>
</g>
<g>
</g>
<g>
</g>
<g>
</g>
<g>
</g>
<g>
</g>
<g>
</g>
<g>
</g>
<g>
</g>
<g>
</g>
<g>
</g>
<g>
</g>
<g>
</g>
<g>
</g>
</svg>
