<?xml version="1.0" encoding="iso-8859-1"?>
<!-- Generator: Adobe Illustrator 19.0.0, SVG Export Plug-In . SVG Version: 6.00 Build 0)  -->
<svg version="1.1" id="Capa_1" xmlns="http://www.w3.org/2000/svg" xmlns:xlink="http://www.w3.org/1999/xlink" x="0px" y="0px"
	 viewBox="0 0 522.462 522.462" style="enable-background:new 0 0 522.462 522.462;" xml:space="preserve">
<g>
	<g>
		<path d="M348.308,22.335V10.885C348.308,4.898,343.41,0,337.423,0c-6.008,0-10.885,4.898-10.885,10.885v228.577H76.192
			c-6.008,0-10.885,4.898-10.885,10.885c0,54.031,30.455,101.075,75.104,124.89l-20.55,134.708
			c-1.001,6.509,3.984,12.517,10.754,12.517c5.29,0,9.927-3.853,10.754-9.252l11.864-77.825h99.943l0.196,4.419
			c-14.607,7.031-24.795,21.856-24.795,39.119c0,24.033,19.505,43.538,43.538,43.538c24.011,0,43.538-19.505,43.538-43.538
			c0-23.032-18.025-41.732-40.665-43.234l-2.569-60.083c42.167-22.183,71.73-64.938,75.365-114.876
			c61.172-5.29,109.369-56.709,109.369-119.23C457.154,79.175,409.24,27.843,348.308,22.335z M185.038,283h43.538
			c5.987,0,10.885,4.898,10.885,10.885c0,6.008-4.898,10.885-10.885,10.885h-43.538c-6.008,0-10.885-4.876-10.885-10.885
			C174.154,287.898,179.03,283,185.038,283z M156.564,413.615l4.484-29.476c14.389,4.92,29.737,7.706,45.759,7.706
			c15.434,0,30.281-2.569,44.213-7.162l1.241,28.931C252.262,413.615,156.564,413.615,156.564,413.615z M97.962,217.692h195.923
			c5.987,0,10.885-4.876,10.885-10.885c0-5.987-4.898-10.885-10.885-10.885H97.962c-6.008,0-10.885,4.898-10.885,10.885
			C87.077,212.816,91.953,217.692,97.962,217.692z"/>
	</g>
</g>
<g>
</g>
<g>
</g>
<g>
</g>
<g>
</g>
<g>
</g>
<g>
</g>
<g>
</g>
<g>
</g>
<g>
</g>
<g>
</g>
<g>
</g>
<g>
</g>
<g>
</g>
<g>
</g>
<g>
</g>
</svg>
