<?xml version="1.0" encoding="utf-8"?>

<!-- License Agreement at http://iconmonstr.com/license/ -->

<!DOCTYPE svg PUBLIC "-//W3C//DTD SVG 1.1//EN" "http://www.w3.org/Graphics/SVG/1.1/DTD/svg11.dtd">
<svg version="1.1" xmlns="http://www.w3.org/2000/svg" xmlns:xlink="http://www.w3.org/1999/xlink" x="0px" y="0px"
	 width="512px" height="512px" viewBox="0 0 512 512" enable-background="new 0 0 512 512" xml:space="preserve">
<path id="bookmark-22-icon" d="M377.343,148.683c-46.756,0-84.66,37.902-84.66,84.658c0,46.757,37.904,84.659,84.66,84.659
	s84.658-37.902,84.658-84.659C462.001,186.585,424.099,148.683,377.343,148.683z M429.372,248.725h-36.645v36.645h-28.303v-36.645
	H327.78v-28.301h36.645v-36.645h28.303v36.645h36.645V248.725z M364.606,347.297l18.709,104.622L256,383.829l-127.315,68.09
	L154.1,309.794L49.999,209.749l143.022-19.748L256,60.081l43.281,89.286c-23.81,22.187-36.599,52.269-36.599,83.974
	c0,30.627,11.927,59.421,33.584,81.077C314.892,333.043,338.797,344.462,364.606,347.297z"/>
</svg>
