<?xml version="1.0" encoding="iso-8859-1"?>
<!-- Generator: Adobe Illustrator 18.1.1, SVG Export Plug-In . SVG Version: 6.00 Build 0)  -->
<svg version="1.1" id="Capa_1" xmlns="http://www.w3.org/2000/svg" xmlns:xlink="http://www.w3.org/1999/xlink" x="0px" y="0px"
	 viewBox="0 0 26 26" style="enable-background:new 0 0 26 26;" xml:space="preserve">
<g>
	<path style="fill:#030104;" d="M23.382,8.356L22.61,3.447C22.502,2.071,21.37,1,20.072,1h-1.64c0-0.551-0.449-1-1-1h-1
		c-0.551,0-1,0.449-1,1h-7.32C6.815,1,5.498,2.071,5.158,3.447l-2.46,4.909C2.209,10.322,3.136,12,4.793,12h15.873
		C22.323,12,23.535,10.322,23.382,8.356z M18.932,6h-9c-0.828,0-1.5-0.672-1.5-1.5S9.104,3,9.932,3h9c0.828,0,1.5,0.672,1.5,1.5
		S19.76,6,18.932,6z M20.732,17.706c-0.424-0.351-0.86-0.726-1.3-1.141V13h-2v3.565c-0.445,0.421-0.886,0.799-1.312,1.153
		c-1.382,1.147-2.688,2.23-2.688,4.282c0,2.505,1.869,4,5,4s5-1.495,5-4C23.432,19.946,22.12,18.858,20.732,17.706z M15.432,22
		c0-1.065,0.638-1.642,1.965-2.742c0.011-0.009,0.024-0.021,0.035-0.03v4.705C15.433,23.635,15.432,22.432,15.432,22z
		 M19.432,23.932v-4.707c0.007,0.006,0.015,0.013,0.022,0.019c1.336,1.11,1.978,1.689,1.978,2.756
		C21.432,22.432,21.431,23.635,19.432,23.932z"/>
</g>
<g>
</g>
<g>
</g>
<g>
</g>
<g>
</g>
<g>
</g>
<g>
</g>
<g>
</g>
<g>
</g>
<g>
</g>
<g>
</g>
<g>
</g>
<g>
</g>
<g>
</g>
<g>
</g>
<g>
</g>
</svg>
