<?xml version="1.0" encoding="iso-8859-1"?>
<!-- Generator: Adobe Illustrator 18.1.1, SVG Export Plug-In . SVG Version: 6.00 Build 0)  -->
<svg xmlns="http://www.w3.org/2000/svg" xmlns:xlink="http://www.w3.org/1999/xlink" version="1.1" id="Capa_1" x="0px" y="0px" viewBox="0 0 96.737 96.737" style="enable-background:new 0 0 96.737 96.737;" xml:space="preserve" width="512px" height="512px">
<g>
	<path d="M81.612,24.082L36.618,0.89c-6.162-3.247-18.314,3.026-21.805,8.546   c-1.559,2.466-1.443,4.249-1.443,5.256l0.555,52.373c0.037,1.111,1.438,2.612,2.637,3.348c2.496,1.531,40.297,25.131,41.369,25.799   c0.576,0.358,1.256,0.525,1.928,0.525c0.572,0,1.146-0.127,1.666-0.385c1.136-0.558,1.843-1.642,1.843-2.82V38.523   c0-1.145-0.668-2.203-1.756-2.775l-40.896-22.83c0.463-0.899,2.283-2.801,5.627-4.552c3.523-1.845,6.162-1.148,6.768-0.914   c0,0,39.248,21.004,40.449,21.629c1.195,0.624,1.219,0.718,1.219,1.786c0,1.067,0,52.2,0,52.2c0,2.604,2.645,3.67,4.584,3.67   c1.938,0,4.006-1.9,4.006-3.67V26.858C83.368,25.713,82.696,24.654,81.612,24.082z" fill="#ff2d54"/>
</g>
<g>
</g>
<g>
</g>
<g>
</g>
<g>
</g>
<g>
</g>
<g>
</g>
<g>
</g>
<g>
</g>
<g>
</g>
<g>
</g>
<g>
</g>
<g>
</g>
<g>
</g>
<g>
</g>
<g>
</g>
</svg>
