<?xml version="1.0" encoding="iso-8859-1"?>
<!-- Generator: Adobe Illustrator 17.1.0, SVG Export Plug-In . SVG Version: 6.00 Build 0)  -->
<!DOCTYPE svg PUBLIC "-//W3C//DTD SVG 1.1//EN" "http://www.w3.org/Graphics/SVG/1.1/DTD/svg11.dtd">
<svg version="1.1" id="Capa_1" xmlns="http://www.w3.org/2000/svg" xmlns:xlink="http://www.w3.org/1999/xlink" x="0px" y="0px"
	 viewBox="0 0 447.254 447.254" style="enable-background:new 0 0 447.254 447.254;" xml:space="preserve">
<path d="M343.26,93.17l-27.313-82.904C314.051,4.509,307.818,0,301.757,0h-156.5c-6.063,0-12.289,4.515-14.174,10.277
	l-27.109,82.892c-1.616,4.94-2.837,13.188-2.722,18.385l7.176,324.258c0.14,6.31,5.388,11.442,11.699,11.442h56
	c6.18,0,11.829-4.989,12.594-11.123l34.906-280.185l34.907,280.185c0.763,6.134,6.412,11.123,12.593,11.123h56
	c6.312,0,11.56-5.133,11.698-11.442l7.176-324.258C346.117,106.354,344.887,98.106,343.26,93.17z M151.119,73.045l-18.206,55.262
	c-0.901,2.734-3.443,4.468-6.173,4.468c-0.674,0-1.359-0.105-2.035-0.328c-3.41-1.123-5.263-4.798-4.14-8.208l18.206-55.262
	c1.123-3.41,4.798-5.266,8.208-4.14C150.389,65.96,152.242,69.635,151.119,73.045z M159.294,38.815h-15.333
	c-3.59,0-6.5-2.91-6.5-6.5s2.91-6.5,6.5-6.5h15.333c3.59,0,6.5,2.91,6.5,6.5S162.884,38.815,159.294,38.815z M195.294,38.815
	h-15.333c-3.59,0-6.5-2.91-6.5-6.5s2.91-6.5,6.5-6.5h15.333c3.59,0,6.5,2.91,6.5,6.5S198.884,38.815,195.294,38.815z
	 M231.294,38.815h-15.333c-3.59,0-6.5-2.91-6.5-6.5s2.91-6.5,6.5-6.5h15.333c3.59,0,6.5,2.91,6.5,6.5S234.884,38.815,231.294,38.815
	z M267.294,38.815H251.96c-3.59,0-6.5-2.91-6.5-6.5s2.91-6.5,6.5-6.5h15.334c3.59,0,6.5,2.91,6.5,6.5S270.884,38.815,267.294,38.815
	z M281.46,32.315c0-3.59,2.91-6.5,6.5-6.5h15.334c3.59,0,6.5,2.91,6.5,6.5s-2.91,6.5-6.5,6.5H287.96
	C284.371,38.815,281.46,35.905,281.46,32.315z M322.549,132.446c-0.676,0.223-1.361,0.328-2.035,0.328
	c-2.73,0-5.271-1.733-6.173-4.468l-18.205-55.262c-1.123-3.41,0.73-7.085,4.14-8.208c3.414-1.127,7.084,0.73,8.208,4.14
	l18.205,55.262C327.812,127.648,325.958,131.323,322.549,132.446z"/>
<g>
</g>
<g>
</g>
<g>
</g>
<g>
</g>
<g>
</g>
<g>
</g>
<g>
</g>
<g>
</g>
<g>
</g>
<g>
</g>
<g>
</g>
<g>
</g>
<g>
</g>
<g>
</g>
<g>
</g>
</svg>
