<?xml version="1.0" encoding="iso-8859-1"?>
<!-- Generator: Adobe Illustrator 18.0.0, SVG Export Plug-In . SVG Version: 6.00 Build 0)  -->
<!DOCTYPE svg PUBLIC "-//W3C//DTD SVG 1.1//EN" "http://www.w3.org/Graphics/SVG/1.1/DTD/svg11.dtd">
<svg version="1.1" id="Capa_1" xmlns="http://www.w3.org/2000/svg" xmlns:xlink="http://www.w3.org/1999/xlink" x="0px" y="0px"
	 viewBox="0 0 431.762 431.762" style="enable-background:new 0 0 431.762 431.762;" xml:space="preserve">
<g>
	<g>
		<path d="M321.843,405.303H109.92c-2.485,0-4.5-2.015-4.5-4.5V30.96c0-2.485,2.015-4.5,4.5-4.5h211.923c2.485,0,4.5,2.015,4.5,4.5
			v369.843C326.343,403.288,324.328,405.303,321.843,405.303z M114.42,396.303h202.923V35.46H114.42V396.303z"/>
	</g>
	<g>
		<g>
			<path d="M215.88,238.585L215.88,238.585c-1.193,0-2.338-0.475-3.182-1.318l-18.203-18.204c-1.757-1.757-1.757-4.606,0-6.363
				l18.203-18.204c0.844-0.844,1.989-1.318,3.182-1.318c1.193,0,2.338,0.474,3.182,1.318l18.205,18.204
				c0.844,0.844,1.318,1.988,1.318,3.182c0,1.193-0.474,2.338-1.318,3.182l-18.205,18.204
				C218.218,238.111,217.073,238.585,215.88,238.585z M204.041,215.881l11.839,11.84l11.841-11.84l-11.841-11.84L204.041,215.881z"
				/>
		</g>
		<g>
			<path d="M215.88,142.605c-1.152,0-2.303-0.439-3.182-1.318l-18.203-18.203c-1.757-1.757-1.757-4.606,0-6.363l18.203-18.204
				c0.844-0.844,1.989-1.318,3.182-1.318c1.193,0,2.338,0.474,3.182,1.318l18.205,18.204c0.844,0.844,1.318,1.988,1.318,3.182
				c0,1.193-0.474,2.338-1.318,3.183l-18.205,18.203C218.183,142.166,217.031,142.605,215.88,142.605z M204.041,119.902
				l11.839,11.839l11.841-11.839l-11.841-11.84L204.041,119.902z"/>
		</g>
		<g>
			<path d="M215.88,334.564L215.88,334.564c-1.193,0-2.338-0.475-3.182-1.318l-18.203-18.204c-1.757-1.757-1.757-4.607,0-6.363
				l18.203-18.203c1.758-1.759,4.607-1.756,6.364-0.001l18.205,18.203c0.844,0.845,1.318,1.989,1.318,3.183
				c0,1.193-0.474,2.338-1.318,3.182l-18.205,18.204C218.218,334.09,217.073,334.564,215.88,334.564z M204.041,311.859l11.839,11.84
				l11.841-11.84l-11.841-11.839L204.041,311.859z"/>
		</g>
	</g>
	<g>
		<g>
			<g>
				<path d="M170.064,188.033c-1.152,0-2.303-0.439-3.182-1.318l-15.643-15.643c-1.757-1.757-1.757-4.606,0-6.363l15.643-15.643
					c0.844-0.844,1.989-1.318,3.182-1.318s2.338,0.474,3.182,1.318l15.644,15.643c0.844,0.844,1.318,1.988,1.318,3.182
					c0,1.193-0.474,2.338-1.318,3.182l-15.644,15.643C172.368,187.594,171.216,188.033,170.064,188.033z M160.786,167.891
					l9.279,9.278l9.279-9.278l-9.279-9.279L160.786,167.891z"/>
			</g>
			<g>
				<path d="M170.064,284.012c-1.152,0-2.303-0.44-3.182-1.318l-15.643-15.642c-1.758-1.757-1.758-4.606,0-6.363l15.643-15.644
					c0.844-0.844,1.989-1.318,3.182-1.318s2.338,0.474,3.182,1.318l15.644,15.644c0.844,0.844,1.318,1.988,1.318,3.182
					c0,1.193-0.474,2.338-1.318,3.183l-15.644,15.642C172.368,283.572,171.216,284.012,170.064,284.012z M160.786,263.87
					l9.279,9.278l9.279-9.278l-9.279-9.279L160.786,263.87z"/>
			</g>
		</g>
		<g>
			<path d="M263.848,222.268l8.295,8.295c0.878,0.879,2.03,1.318,3.182,1.318c1.151,0,2.303-0.439,3.182-1.318l11.501-11.5
				c0.844-0.844,1.318-1.988,1.318-3.182c0-1.193-0.474-2.338-1.318-3.182l-11.501-11.502c-0.844-0.844-1.989-1.318-3.182-1.318
				c-1.193,0-2.338,0.475-3.182,1.318l-8.295,8.296l-41.604-41.602l41.604-41.602l8.295,8.295c0.878,0.879,2.03,1.318,3.182,1.318
				c1.151,0,2.303-0.439,3.182-1.318l11.501-11.5c0.844-0.844,1.318-1.988,1.318-3.182c0-1.193-0.474-2.338-1.318-3.182
				l-11.501-11.501c-1.758-1.758-4.607-1.758-6.364,0l-8.295,8.295L219.062,68.73c-0.844-0.845-1.989-1.318-3.182-1.318
				c-1.193,0-2.338,0.475-3.182,1.318l-44.783,44.784l-8.295-8.295c-0.844-0.845-1.989-1.318-3.182-1.318
				c-1.193,0-2.338,0.475-3.182,1.318l-11.5,11.501c-1.757,1.757-1.757,4.606,0,6.363l11.5,11.5c0.879,0.879,2.03,1.318,3.182,1.318
				c1.151,0,2.303-0.439,3.182-1.318l8.295-8.295l41.602,41.602l-41.602,41.602l-8.295-8.296c-0.844-0.844-1.989-1.318-3.182-1.318
				c-1.194,0-2.338,0.475-3.182,1.318l-11.5,11.502c-1.757,1.757-1.757,4.606,0,6.363l11.5,11.5c0.879,0.879,2.03,1.318,3.182,1.318
				c1.151,0,2.303-0.439,3.182-1.318l8.295-8.295l41.602,41.604l-41.602,41.602l-8.294-8.295c-0.844-0.845-1.989-1.318-3.182-1.318
				c-1.193,0-2.338,0.475-3.182,1.318l-11.5,11.501c-1.757,1.757-1.757,4.606,0,6.363l11.5,11.5c0.879,0.879,2.03,1.318,3.182,1.318
				c1.151,0,2.303-0.44,3.182-1.318l8.295-8.295l44.783,44.784c0.844,0.844,1.989,1.318,3.182,1.318
				c1.193,0,2.338-0.475,3.182-1.318l44.785-44.784l8.295,8.295c0.878,0.879,2.03,1.318,3.182,1.318c1.151,0,2.303-0.44,3.182-1.318
				l11.501-11.5c0.844-0.844,1.318-1.988,1.318-3.182c0-1.193-0.474-2.338-1.318-3.182l-11.501-11.501
				c-1.758-1.758-4.607-1.758-6.364,0l-8.295,8.295l-41.604-41.602L263.848,222.268z M275.324,210.743l5.137,5.138l-5.137,5.137
				l-5.137-5.137L275.324,210.743z M275.324,114.766l5.137,5.137l-5.137,5.137l-5.137-5.137L275.324,114.766z M156.438,125.038
				l-5.136-5.136l5.136-5.137l5.137,5.137L156.438,125.038z M215.88,78.276l41.627,41.626l-41.627,41.624l-41.626-41.624
				L215.88,78.276z M156.438,221.017l-5.136-5.136l5.136-5.138l5.137,5.138L156.438,221.017z M215.88,174.255l41.627,41.626
				l-41.627,41.626l-41.626-41.626L215.88,174.255z M156.438,316.996l-5.136-5.136l5.136-5.137l5.137,5.137L156.438,316.996z
				 M275.324,306.724l5.137,5.137l-5.137,5.137l-5.137-5.137L275.324,306.724z M215.88,353.485l-41.626-41.626l41.626-41.624
				l41.627,41.624L215.88,353.485z"/>
			<g>
				<path d="M261.697,188.033c-1.152,0-2.303-0.439-3.182-1.318l-15.644-15.643c-0.844-0.844-1.318-1.988-1.318-3.182
					c0-1.193,0.474-2.338,1.318-3.182l15.644-15.643c0.844-0.844,1.989-1.318,3.182-1.318l0,0c1.193,0,2.338,0.475,3.182,1.318
					l15.643,15.643c1.757,1.757,1.757,4.607,0,6.363l-15.643,15.643C264,187.594,262.849,188.033,261.697,188.033z M252.418,167.891
					l9.279,9.278l9.279-9.278l-9.279-9.279L252.418,167.891z"/>
			</g>
			<g>
				<path d="M261.697,284.012c-1.151,0-2.303-0.44-3.182-1.317l-15.644-15.642c-0.844-0.845-1.318-1.989-1.318-3.183
					c0-1.193,0.474-2.338,1.318-3.182l15.644-15.644c0.844-0.844,1.989-1.318,3.182-1.318l0,0c1.193,0,2.338,0.475,3.182,1.318
					l15.643,15.644c1.757,1.757,1.757,4.607,0,6.363l-15.643,15.642C264,283.572,262.849,284.012,261.697,284.012z M252.418,263.87
					l9.279,9.278l9.279-9.278l-9.279-9.279L252.418,263.87z"/>
			</g>
			<path d="M301.863,47.854H129.898c-2.485,0-4.5,2.015-4.5,4.5v327.056c0,2.485,2.015,4.5,4.5,4.5h171.965
				c2.485,0,4.5-2.015,4.5-4.5V52.354C306.363,49.868,304.349,47.854,301.863,47.854z M270.976,67.995l-9.278,9.278l-9.279-9.278
				l9.279-9.278L270.976,67.995z M179.344,67.995l-9.279,9.278l-9.278-9.278l9.278-9.278L179.344,67.995z M170.064,373.046
				l-9.279-9.278l9.279-9.279l9.279,9.279L170.064,373.046z M261.697,373.046l-9.279-9.278l9.279-9.279l9.279,9.279L261.697,373.046
				z M297.363,374.909h-24.802l7.96-7.96c1.758-1.757,1.758-4.607,0-6.363l-15.643-15.644c-0.844-0.844-1.989-1.318-3.182-1.318
				s-2.338,0.475-3.182,1.318l-15.644,15.644c-0.844,0.844-1.318,1.988-1.318,3.182c0,1.193,0.474,2.338,1.318,3.183l7.96,7.959
				H180.93l7.96-7.959c0.844-0.845,1.318-1.989,1.318-3.183c0-1.193-0.474-2.338-1.318-3.182l-15.644-15.644
				c-0.844-0.845-1.989-1.318-3.182-1.318s-2.338,0.475-3.182,1.318l-15.643,15.644c-1.757,1.757-1.757,4.606,0,6.363l7.96,7.96
				h-24.802V56.854h24.802l-7.96,7.96c-0.844,0.844-1.318,1.988-1.318,3.182c0,1.193,0.474,2.338,1.318,3.182l15.643,15.643
				c0.879,0.879,2.03,1.318,3.182,1.318c1.151,0,2.303-0.439,3.182-1.318l15.644-15.643c0.844-0.844,1.318-1.988,1.318-3.182
				c0-1.193-0.474-2.338-1.318-3.183l-7.96-7.959h69.902l-7.96,7.959c-0.844,0.845-1.318,1.989-1.318,3.183
				c0,1.193,0.474,2.338,1.318,3.182l15.644,15.643c0.878,0.879,2.03,1.318,3.182,1.318c1.152,0,2.303-0.439,3.182-1.318
				l15.643-15.643c0.844-0.844,1.318-1.988,1.318-3.182c0-1.193-0.474-2.338-1.318-3.182l-7.96-7.96h24.802V374.909z"/>
		</g>
	</g>
	<path d="M336.256,0c-2.485,0-4.5,2.015-4.5,4.5v7.014h-6.047V4.5c0-2.485-2.015-4.5-4.5-4.5s-4.5,2.015-4.5,4.5v7.014h-6.047V4.5
		c0-2.485-2.015-4.5-4.5-4.5c-2.485,0-4.5,2.015-4.5,4.5v7.014h-6.047V4.5c0-2.485-2.015-4.5-4.5-4.5c-2.485,0-4.5,2.015-4.5,4.5
		v7.014h-6.047V4.5c0-2.485-2.015-4.5-4.5-4.5c-2.485,0-4.5,2.015-4.5,4.5v7.014h-6.047V4.5c0-2.485-2.015-4.5-4.5-4.5
		c-2.485,0-4.5,2.015-4.5,4.5v7.014h-6.047V4.5c0-2.485-2.015-4.5-4.5-4.5c-2.485,0-4.5,2.015-4.5,4.5v7.014h-6.047V4.5
		c0-2.485-2.015-4.5-4.5-4.5c-2.485,0-4.5,2.015-4.5,4.5v7.014h-6.047V4.5c0-2.485-2.015-4.5-4.5-4.5c-2.485,0-4.5,2.015-4.5,4.5
		v7.014h-6.047V4.5c0-2.485-2.015-4.5-4.5-4.5c-2.485,0-4.5,2.015-4.5,4.5v7.014h-6.047V4.5c0-2.485-2.015-4.5-4.5-4.5
		c-2.485,0-4.5,2.015-4.5,4.5v7.014h-6.047V4.5c0-2.485-2.015-4.5-4.5-4.5c-2.485,0-4.5,2.015-4.5,4.5v7.014h-6.047V4.5
		c0-2.485-2.015-4.5-4.5-4.5c-2.485,0-4.5,2.015-4.5,4.5v7.014h-6.047V4.5c0-2.485-2.015-4.5-4.5-4.5c-2.485,0-4.5,2.015-4.5,4.5
		v7.014H130.1V4.5c0-2.485-2.015-4.5-4.5-4.5c-2.485,0-4.5,2.015-4.5,4.5v7.014h-6.047V4.5c0-2.485-2.015-4.5-4.5-4.5
		c-2.485,0-4.5,2.015-4.5,4.5v7.014h-6.047V4.5c0-2.485-2.015-4.5-4.5-4.5c-2.485,0-4.5,2.015-4.5,4.5v422.762
		c0,2.485,2.015,4.5,4.5,4.5c2.485,0,4.5-2.015,4.5-4.5v-7.013h6.047v7.013c0,2.485,2.015,4.5,4.5,4.5c2.485,0,4.5-2.015,4.5-4.5
		v-7.013h6.047v7.013c0,2.485,2.015,4.5,4.5,4.5c2.485,0,4.5-2.015,4.5-4.5v-7.013h6.047v7.013c0,2.485,2.015,4.5,4.5,4.5
		c2.485,0,4.5-2.015,4.5-4.5v-7.013h6.047v7.013c0,2.485,2.015,4.5,4.5,4.5c2.485,0,4.5-2.015,4.5-4.5v-7.013h6.047v7.013
		c0,2.485,2.015,4.5,4.5,4.5c2.485,0,4.5-2.015,4.5-4.5v-7.013h6.047v7.013c0,2.485,2.015,4.5,4.5,4.5c2.485,0,4.5-2.015,4.5-4.5
		v-7.013h6.047v7.013c0,2.485,2.015,4.5,4.5,4.5c2.485,0,4.5-2.015,4.5-4.5v-7.013h6.047v7.013c0,2.485,2.015,4.5,4.5,4.5
		c2.485,0,4.5-2.015,4.5-4.5v-7.013h6.047v7.013c0,2.485,2.015,4.5,4.5,4.5c2.485,0,4.5-2.015,4.5-4.5v-7.013h6.047v7.013
		c0,2.485,2.015,4.5,4.5,4.5c2.485,0,4.5-2.015,4.5-4.5v-7.013h6.047v7.013c0,2.485,2.015,4.5,4.5,4.5c2.485,0,4.5-2.015,4.5-4.5
		v-7.013h6.047v7.013c0,2.485,2.015,4.5,4.5,4.5c2.485,0,4.5-2.015,4.5-4.5v-7.013h6.047v7.013c0,2.485,2.015,4.5,4.5,4.5
		c2.485,0,4.5-2.015,4.5-4.5v-7.013h6.047v7.013c0,2.485,2.015,4.5,4.5,4.5c2.485,0,4.5-2.015,4.5-4.5v-7.013h6.047v7.013
		c0,2.485,2.015,4.5,4.5,4.5s4.5-2.015,4.5-4.5v-7.013h6.047v7.013c0,2.485,2.015,4.5,4.5,4.5c2.485,0,4.5-2.015,4.5-4.5V4.5
		C340.756,2.015,338.741,0,336.256,0z M100.006,20.514h231.75v390.735h-231.75V20.514z"/>
</g>
<g>
</g>
<g>
</g>
<g>
</g>
<g>
</g>
<g>
</g>
<g>
</g>
<g>
</g>
<g>
</g>
<g>
</g>
<g>
</g>
<g>
</g>
<g>
</g>
<g>
</g>
<g>
</g>
<g>
</g>
</svg>
