<?xml version="1.0" encoding="iso-8859-1"?>
<!-- Generator: Adobe Illustrator 18.0.0, SVG Export Plug-In . SVG Version: 6.00 Build 0)  -->
<!DOCTYPE svg PUBLIC "-//W3C//DTD SVG 1.1//EN" "http://www.w3.org/Graphics/SVG/1.1/DTD/svg11.dtd">
<svg version="1.1" id="Capa_1" xmlns="http://www.w3.org/2000/svg" xmlns:xlink="http://www.w3.org/1999/xlink" x="0px" y="0px"
	 viewBox="0 0 481 481" style="enable-background:new 0 0 481 481;" xml:space="preserve">
<g>
	<path d="M349,237V18c0-9.925-8.075-18-18-18H150c-9.925,0-18,8.075-18,18v219H349z"/>
	<path d="M381,300v-25c0-9.925-8.075-18-18-18H118c-9.925,0-18,8.075-18,18v25c0,9.925,8.075,18,18,18h245
		C372.925,318,381,309.925,381,300z"/>
	<path d="M125,338v133c0,5.523,4.477,10,10,10s10-4.477,10-10V338H125z"/>
	<path d="M336,338v133c0,5.523,4.478,10,10,10s10-4.477,10-10V338H336z"/>
</g>
<g>
</g>
<g>
</g>
<g>
</g>
<g>
</g>
<g>
</g>
<g>
</g>
<g>
</g>
<g>
</g>
<g>
</g>
<g>
</g>
<g>
</g>
<g>
</g>
<g>
</g>
<g>
</g>
<g>
</g>
</svg>
