<?xml version="1.0" encoding="iso-8859-1"?>
<!-- Generator: Adobe Illustrator 17.1.0, SVG Export Plug-In . SVG Version: 6.00 Build 0)  -->
<!DOCTYPE svg PUBLIC "-//W3C//DTD SVG 1.1//EN" "http://www.w3.org/Graphics/SVG/1.1/DTD/svg11.dtd">
<svg version="1.1" id="Capa_1" xmlns="http://www.w3.org/2000/svg" xmlns:xlink="http://www.w3.org/1999/xlink" x="0px" y="0px"
	 viewBox="0 0 460.826 460.826" style="enable-background:new 0 0 460.826 460.826;" xml:space="preserve">
<g>
	<path d="M144.171,130.162c2.79,5.579,4.603,10.058,5.705,14.093c0.147,0.54,0.267,1.261,0.393,2.024
		c0.573,3.473,1.64,9.938,9.15,9.938h27.5l-0.11-2.605c-0.196-4.656-0.811-8.915-1.777-12.315l-1.751-6.159
		c-0.946-3.326-0.706-5.274-0.167-5.989c0.09-0.119,0.3-0.397,1.068-0.397c0.717,0,2.324,0.258,5.021,1.982l25.553,16.336
		c4.254,2.72,9.892,4.218,15.876,4.218c5.84,0,11.357-1.437,15.538-4.046l25.664-16.017c2.687-1.677,4.292-1.927,5.011-1.927
		c0.799,0,1.014,0.287,1.105,0.41c0.538,0.719,0.764,2.672-0.215,5.997l-1.8,6.115c-0.951,3.231-1.593,7.295-1.856,11.75
		l-0.156,2.647h26.162c7.884,0,9.535-7.274,10.156-10.014l0.036-0.157c1.021-4.482,2.977-9.529,6.154-15.884
		c1.412-2.825,3.14-6.161,4.969-9.692c16.749-32.342,44.781-86.473,25.362-111.005C341.791,3.185,334.12,0,323.961,0
		c-22.017,0-51.271,14.522-72.632,25.126c-9.504,4.718-18.479,9.174-21.028,9.174c-2,0-10.397-4.134-18.518-8.131
		C191.25,16.063,160.221,0.791,137.008,0.791c-9.985,0-17.735,2.865-23.032,8.516c-22.144,23.62,6.139,76.013,23.037,107.317
		C139.836,121.853,142.274,126.369,144.171,130.162z"/>
	<path d="M392.028,391.203c-0.526-2.635-1.201-6.234-2.022-10.616c-7.409-39.54-24.763-132.135-52.63-170.07
		c-10.638-14.482-16.672-23.467-20.824-31.01c-0.085-0.154-0.148-0.336-0.224-0.526c-0.608-1.546-1.874-4.764-7.493-4.764h-30.573
		l-3.253,0.065l0.858,3.156c0.126,0.463,0.252,0.925,0.39,1.36l0.852,2.703c0.945,3.001,0.878,5.553-0.186,7.002
		c-0.761,1.037-2.049,1.563-3.828,1.563c-1.165,0-2.48-0.233-3.909-0.694l-21.913-7.059c-4.657-1.5-10.832-2.326-17.387-2.326
		c-6.225,0-12.099,0.757-16.54,2.133l-21.951,6.795c-1.391,0.431-2.675,0.649-3.816,0.649c-1.256,0-2.956-0.277-3.915-1.599
		c-1.063-1.463-1.112-4.024-0.135-7.028l0.868-2.668c0.062-0.189,0.119-0.389,0.176-0.588l1.027-3.466h-33.765
		c-3.59,0-6.459,2.89-7.825,5.365c-4.156,7.534-10.178,16.497-20.784,30.935c-27.866,37.935-45.22,130.528-52.63,170.067
		c-0.821,4.383-1.496,7.984-2.023,10.619c-3.379,16.899-5.941,40.668-5.958,55.289c-0.001,0.714,0.214,1.782,1.242,2.812
		c1.621,1.622,5.926,5.933,62.649,8.929c31.674,1.672,73.587,2.594,118.019,2.594c0.008,0,0.01,0,0.017,0
		c38.369,0,74.623-0.691,102.079-1.946c46.736-2.136,49.4-4.943,50.68-6.292c0.632-0.666,0.955-1.505,0.909-2.362
		C397.605,438.756,395.797,410.045,392.028,391.203z"/>
</g>
<g>
</g>
<g>
</g>
<g>
</g>
<g>
</g>
<g>
</g>
<g>
</g>
<g>
</g>
<g>
</g>
<g>
</g>
<g>
</g>
<g>
</g>
<g>
</g>
<g>
</g>
<g>
</g>
<g>
</g>
</svg>
