<?xml version="1.0" encoding="iso-8859-1"?>
<!-- Generator: Adobe Illustrator 17.1.0, SVG Export Plug-In . SVG Version: 6.00 Build 0)  -->
<!DOCTYPE svg PUBLIC "-//W3C//DTD SVG 1.1//EN" "http://www.w3.org/Graphics/SVG/1.1/DTD/svg11.dtd">
<svg xmlns="http://www.w3.org/2000/svg" xmlns:xlink="http://www.w3.org/1999/xlink" version="1.1" id="Capa_1" x="0px" y="0px" viewBox="0 0 415.5 415.5" style="enable-background:new 0 0 415.5 415.5;" xml:space="preserve" width="512px" height="512px">
<g>
	<path d="M192.25,350.69c2.109,0,4.17-0.86,5.66-2.35c1.489-1.48,2.34-3.55,2.34-5.65c0-2.11-0.851-4.17-2.34-5.66   c-1.49-1.49-3.551-2.34-5.66-2.34c-2.11,0-4.17,0.85-5.66,2.34c-1.48,1.49-2.34,3.55-2.34,5.66c0,2.1,0.859,4.17,2.34,5.65   C188.08,349.83,190.14,350.69,192.25,350.69z" fill="#ff2d54"/>
	<path d="M128.25,271.375H72.125c-4.418,0-8,3.582-8,8v79.875c0,4.418,3.582,8,8,8h56.125c4.418,0,8-3.582,8-8v-79.875   C136.25,274.957,132.668,271.375,128.25,271.375z M120.25,287.375v23.938H80.125v-23.938H120.25z M80.125,351.25v-23.938h40.125   v23.938H80.125z" fill="#ff2d54"/>
	<path d="M287.958,367.25h56.125c4.418,0,8-3.582,8-8v-79.875c0-4.418-3.582-8-8-8h-56.125c-4.418,0-8,3.582-8,8v79.875   C279.958,363.668,283.54,367.25,287.958,367.25z M295.958,351.25v-23.938h40.125v23.938H295.958z M336.083,287.375v23.938h-40.125   v-23.938H336.083z" fill="#ff2d54"/>
	<path d="M128.25,151.292H72.125c-4.418,0-8,3.582-8,8v79.875c0,4.418,3.582,8,8,8h56.125c4.418,0,8-3.582,8-8v-79.875   C136.25,154.874,132.668,151.292,128.25,151.292z M120.25,167.292v23.938H80.125v-23.938H120.25z M80.125,231.167v-23.938h40.125   v23.938H80.125z" fill="#ff2d54"/>
	<path d="M168.083,247.167h79.334c4.418,0,8-3.582,8-8v-79.875c0-4.418-3.582-8-8-8h-79.334c-4.418,0-8,3.582-8,8v79.875   C160.083,243.585,163.665,247.167,168.083,247.167z M176.083,231.167v-23.938h63.334v23.938H176.083z M239.417,167.292v23.938   h-63.334v-23.938H239.417z" fill="#ff2d54"/>
	<path d="M287.958,247.167h56.125c4.418,0,8-3.582,8-8v-79.875c0-4.418-3.582-8-8-8h-56.125c-4.418,0-8,3.582-8,8v79.875   C279.958,243.585,283.54,247.167,287.958,247.167z M295.958,231.167v-23.938h40.125v23.938H295.958z M336.083,167.292v23.938   h-40.125v-23.938H336.083z" fill="#ff2d54"/>
	<path d="M400.083,399.5h-8.333V135.167h7.875c0.007,0,0.015,0,0.02,0c4.419,0,8-3.582,8-8c0-1.167-0.249-2.275-0.698-3.275   l-31.556-86.549c-1.151-3.158-4.154-5.26-7.516-5.26h-15.583V8c0-4.418-3.582-8-8-8h-48.375c-4.418,0-8,3.582-8,8v24.083H47.625   c-3.361,0-6.364,2.102-7.516,5.26l-31.75,87.084c-0.895,2.453-0.536,5.188,0.961,7.327c1.497,2.139,3.943,3.413,6.555,3.413h7.875   V399.5h-8.333c-4.418,0-8,3.582-8,8s3.582,8,8,8h384.666c4.418,0,8-3.582,8-8S404.501,399.5,400.083,399.5z M303.917,16h32.375   v16.083h-32.375V16z M53.224,48.083h309.053l25.917,71.084H27.307L53.224,48.083z M39.75,135.167h336V399.5H255.417V279.375   c0-4.418-3.582-8-8-8h-79.334c-4.418,0-8,3.582-8,8V399.5H39.75V135.167z M239.417,399.5h-63.334V287.375h63.334V399.5z" fill="#ff2d54"/>
</g>
<g>
</g>
<g>
</g>
<g>
</g>
<g>
</g>
<g>
</g>
<g>
</g>
<g>
</g>
<g>
</g>
<g>
</g>
<g>
</g>
<g>
</g>
<g>
</g>
<g>
</g>
<g>
</g>
<g>
</g>
</svg>
