<?xml version="1.0" encoding="iso-8859-1"?>
<!-- Generator: Adobe Illustrator 16.0.0, SVG Export Plug-In . SVG Version: 6.00 Build 0)  -->
<!DOCTYPE svg PUBLIC "-//W3C//DTD SVG 1.1//EN" "http://www.w3.org/Graphics/SVG/1.1/DTD/svg11.dtd">
<svg version="1.1" id="Capa_1" xmlns="http://www.w3.org/2000/svg" xmlns:xlink="http://www.w3.org/1999/xlink" x="0px" y="0px"
	 width="196.767px" height="196.767px" viewBox="0 0 196.767 196.767" style="enable-background:new 0 0 196.767 196.767;"
	 xml:space="preserve">
<g>
	<g>
		<rect x="68.336" y="126.473" width="41.274" height="8.247"/>
		<path d="M113.735,6.195h-4.854C106.582,2.641,98.584,0,88.967,0C79.355,0,71.362,2.641,69.07,6.195h-4.853l-8.257,4.124h66.03
			L113.735,6.195z"/>
		<path d="M59.75,112.09c1.042,5.995,6.632,10.68,12.72,10.68h33.013c6.08,0,11.662-4.692,12.728-10.724l10.104-64.228h10.68
			c2.921,0,5.566,2.451,5.767,5.356c0.016,0.188,1.01,19.312-18.807,38.766c-1.211,1.19-1.243,3.153-0.044,4.38
			c0.604,0.613,1.426,0.922,2.199,0.922c0.798,0,1.563-0.293,2.177-0.882C152.274,74.778,151,53.627,150.94,52.733
			c-0.445-6.125-5.803-11.108-11.946-11.108h-9.698l2.569-16.292c0.521-3.036-0.237-6.043-2.101-8.264
			c-1.871-2.224-4.709-3.492-7.79-3.492H55.941c-3.076,0-5.911,1.269-7.778,3.492c-1.859,2.22-2.629,5.236-2.112,8.22L59.75,112.09z
			 M52.92,21.049c0.706-0.832,1.783-1.288,3.047-1.288h31.575v40.172c-2.943,0.03-5.184,0.353-5.184,3.767
			c0,3.963,2.959,10.583,6.636,10.583c3.657,0,6.625-6.612,6.625-10.583c0-3.415-2.24-3.737-5.192-3.767V19.761h31.562
			c1.267,0,2.353,0.457,3.054,1.288c0.705,0.832,0.958,1.97,0.733,3.274l-13.653,86.685c-0.513,2.961-3.627,5.566-6.632,5.566
			H72.484c-3.015,0-6.101-2.605-6.626-5.511L52.172,24.275C51.954,23.019,52.223,21.88,52.92,21.049z"/>
		<polygon points="84.847,111.608 93.1,111.608 101.343,111.608 109.615,86.833 97.236,108.343 92.547,108.343 88.975,86.833 
			85.398,108.343 80.726,108.343 68.336,86.833 76.598,111.608 		"/>
		<path d="M122.046,134.483c-1.512-4.332-3.423-5.166-4.24-1.855c-0.846,3.313-5.622,6.027-10.636,6.027H70.771
			c-5.005,0-9.782-2.714-10.63-6.027c-0.832-3.311-2.733-2.469-4.231,1.855l-9.716,54.4c-1.499,4.34,1.373,7.883,6.366,7.883h72.829
			c4.997,0,7.862-3.543,6.368-7.883L122.046,134.483z M88.967,185.266c-2.158,0-3.917-0.866-3.917-1.964
			c0-1.086,1.759-1.96,3.917-1.96c2.178,0,3.933,0.874,3.933,1.96C92.9,184.399,91.145,185.266,88.967,185.266z M88.967,175.451
			c-4.33,0-7.843-0.865-7.843-1.96c0-1.09,3.513-1.964,7.843-1.964c4.344,0,7.859,0.874,7.859,1.964
			C96.826,174.586,93.319,175.451,88.967,175.451z M88.967,165.625c-4.33,0-7.843-0.865-7.843-1.964
			c0-1.074,3.513-1.964,7.843-1.964c4.344,0,7.859,0.89,7.859,1.964C96.826,164.76,93.319,165.625,88.967,165.625z M88.967,155.811
			c-4.33,0-7.843-0.865-7.843-1.959c0-1.074,3.513-1.964,7.843-1.964c4.344,0,7.859,0.89,7.859,1.964
			C96.826,154.945,93.319,155.811,88.967,155.811z"/>
	</g>
</g>
<g>
</g>
<g>
</g>
<g>
</g>
<g>
</g>
<g>
</g>
<g>
</g>
<g>
</g>
<g>
</g>
<g>
</g>
<g>
</g>
<g>
</g>
<g>
</g>
<g>
</g>
<g>
</g>
<g>
</g>
</svg>
