<?xml version="1.0" encoding="iso-8859-1"?>
<!-- Generator: Adobe Illustrator 17.1.0, SVG Export Plug-In . SVG Version: 6.00 Build 0)  -->
<!DOCTYPE svg PUBLIC "-//W3C//DTD SVG 1.1//EN" "http://www.w3.org/Graphics/SVG/1.1/DTD/svg11.dtd">
<svg version="1.1" id="Capa_1" xmlns="http://www.w3.org/2000/svg" xmlns:xlink="http://www.w3.org/1999/xlink" x="0px" y="0px"
	 viewBox="0 0 458.6 458.6" style="enable-background:new 0 0 458.6 458.6;" xml:space="preserve">
<g>
	<path d="M151.969,360.472l-7.652,52.545l41.983,0.002c0.257,0,0.5-0.243,0.5-0.5v-53.045c0-0.257-0.243-0.5-0.5-0.5h-32.6
		C153.022,358.974,152.067,359.8,151.969,360.472z"/>
	<path d="M304.951,358.974h-32.6c-0.257,0-0.5,0.243-0.5,0.5v53.045c0,0.257,0.243,0.5,0.5,0.5h41.981l-7.65-52.548
		C306.584,359.8,305.629,358.974,304.951,358.974z"/>
	<path d="M440.037,324.315L307.3,152.555c1.354-4.671,5.871-21.854,6.165-44.088c0.314-23.744-4.404-57.797-28.668-85.186
		C271.496,8.269,252.677,0,231.806,0c-20.878,0-41.752,8.429-57.27,23.124c-21.408,20.272-32.1,49.283-30.919,83.896
		c0.771,22.622,6.258,40.476,7.866,45.268L18.537,324.316c-7.634,9.89-6.109,23.899,3.475,31.897l20.751,17.25
		c4.138,3.476,9.394,5.39,14.797,5.39c6.557,0,12.826-2.8,17.201-7.683l0.096-0.106l53.95-76.285
		c-4.916,29.943-18.442,113.897-20.176,141.438c-0.341,5.423,1.617,10.695,5.515,14.846c4.432,4.719,11.016,7.536,17.612,7.536
		h73.686c4.148,0,11.994-2.722,11.994-13.022c0-28.795-0.935-108.822-1.491-153.963c-0.377-30.526-0.757-59.465-1.051-80.778
		c-0.147-10.658-0.272-19.41-0.365-25.501c-0.086-5.673-0.126-8.287-0.259-9.606l0.089-0.004c-0.012-0.276-0.362-6.817-5.336-11.669
		c-14.743-14.379-50.327-64.907-21.439-107.034c8.566-12.492,24.019-19.949,41.335-19.949c17.517,0,33.506,7.484,42.772,20.021
		c26.188,35.431-23.21,105.788-25.641,109.2c-0.972,1.054-4.376,5.213-4.376,11.687c0,17.656-0.167,68.319-0.345,121.957
		c-0.198,59.88-0.402,121.799-0.402,145.882c0,10.109,6.386,12.78,9.763,12.78h76.777c6.568,0,13.132-2.815,17.557-7.53
		c3.898-4.154,5.856-9.43,5.512-14.853c-1.741-27.41-15.292-110.939-20.237-140.855l53.346,75.583l0.18,0.226
		c4.359,4.873,10.624,7.669,17.188,7.669c0.001,0,0.001,0,0.002,0c5.404,0,10.677-1.905,14.85-5.368l20.716-17.262
		C446.183,348.186,447.7,334.173,440.037,324.315z M186.3,343.974c8.547,0,15.5,6.953,15.5,15.5v53.045
		c0,8.547-6.953,15.5-15.5,15.5h-42.654c-4.276,0-8.28-1.793-10.983-4.919c-2.704-3.126-3.902-7.346-3.286-11.578l7.749-53.213
		c1.172-8.039,8.452-14.335,16.575-14.335H186.3z M325.989,423.1c-2.703,3.126-6.706,4.919-10.982,4.919h-42.655
		c-8.547,0-15.5-6.953-15.5-15.5v-53.045c0-8.547,6.953-15.5,15.5-15.5h32.6c8.123,0,15.403,6.296,16.575,14.334l7.749,53.213
		C329.891,415.754,328.693,419.974,325.989,423.1z"/>
</g>
<g>
</g>
<g>
</g>
<g>
</g>
<g>
</g>
<g>
</g>
<g>
</g>
<g>
</g>
<g>
</g>
<g>
</g>
<g>
</g>
<g>
</g>
<g>
</g>
<g>
</g>
<g>
</g>
<g>
</g>
</svg>
