<?xml version="1.0" encoding="iso-8859-1"?>
<!-- Generator: Adobe Illustrator 16.0.0, SVG Export Plug-In . SVG Version: 6.00 Build 0)  -->
<!DOCTYPE svg PUBLIC "-//W3C//DTD SVG 1.1//EN" "http://www.w3.org/Graphics/SVG/1.1/DTD/svg11.dtd">
<svg version="1.1" id="Capa_1" xmlns="http://www.w3.org/2000/svg" xmlns:xlink="http://www.w3.org/1999/xlink" x="0px" y="0px"
	 width="464.336px" height="464.335px" viewBox="0 0 464.336 464.335" style="enable-background:new 0 0 464.336 464.335;"
	 xml:space="preserve">
<g>
	<path d="M454.82,384.969c5.223-28.144,20.992-94.38-5.053-159.754c-7.539-18.919-7.902-91.463-6.678-112.401
		c0.471-8.021-2.08-13.78-14.662-13.78c-3.551,0-21.01,0.521-39.508,1.079c-0.133-13.079,0.064-24.781,0.486-32.013
		c0.15-2.544,0.605-10.288-4.83-16.05c-3.934-4.171-9.742-6.198-17.754-6.198c-4.789,0-17.217,0.468-31.609,1.011
		c-18.162,0.685-38.75,1.46-48.439,1.46c-1.424,0-2.377-0.018-3.002-0.038c-0.689-0.733-1.703-2.002-2.492-2.992
		c-6.018-7.534-17.219-21.559-44.405-21.559c-2.146,0-4.385,0.087-6.659,0.26l-0.123,0.01c-15.606,1.175-17.291,13.959-17.291,19.4
		c0,12.919,0.411,57.556,0.411,73.889c0,15.24-3.654,49.198-17.352,79.803c-16.412,36.671-41.373,56.003-74.191,57.46
		c-3.21,0.143-6.202,0.266-9.022,0.381c-22.602,0.926-35.053,1.436-59.938,8.176c-46.56,12.609-52.186,43.17-52.624,74.129
		L0,337.291l0.052,4.707l-0.015,5.713l0.075,0.018c0.017,1.893,0.028,3.797,0.028,5.712c0,13.31,8.55,27.578,22.858,28.42
		c1.025,0.061,1.923,0.171,3.554,0.373c3.951,0.489,10.866,1.345,29.905,2.835c-0.242,7.836-0.549,19.107-0.549,20.874
		c0,8.989,4.317,19.773,14.527,20.372c6.622,0.389,7.622,2.186,110.517,8.388c109.316,6.592,97.271,4.194,123.128,4.194
		c25.861,0,50.486-20.97,50.486-20.97s0,5.993,0,13.184c0,7.191,6.029,8.84,14.982,8.919c23.141,0.206,65.818,0.573,74.477,0.573
		c12.012,0,11.447-4.55,11.447-11.293C455.475,416.661,454.836,395.678,454.82,384.969z M23.998,364.888
		c-4.415-0.26-6.856-6.936-6.856-11.449c0-2.938,0.193-14.527-0.069-15.191c0.276-28.258,4.149-48.996,40.082-58.727
		c23.044-6.242,34.121-6.695,56.19-7.6c2.838-0.116,5.85-0.239,9.08-0.383c39.211-1.742,69.97-25.082,88.954-67.5
		c14.868-33.22,18.835-70.158,18.835-86.747c0-16.411-0.411-61.048-0.411-73.889c0-1.844,0.228-2.344,1.568-2.449l0.135-0.01
		c1.846-0.14,3.652-0.211,5.37-0.211c19.007,0,25.725,8.41,31.122,15.168c3.303,4.135,6.717,8.411,12.473,9.178
		c0.895,0.12,2.344,0.242,6.305,0.242c10.01-0.001,30.768-0.782,49.08-1.473c13.629-0.514,26.5-0.999,30.969-0.999
		c4.168,0,5.336,0.851,5.346,0.811c0.027,0.051,0.42,0.838,0.268,3.443c-0.377,6.459-0.627,18.983-0.48,33.519
		c-16.986,0.507-31.361,0.914-32.166,0.807c-8.373-1.118-12.064-28.241-52.756-25.152c-2.98,0.225-9.941,0.587-9.941,11.37
		c0,27.905-1.543,73.59-1.523,73.59c-3.348,87.95-39.701,141.513-102.519,150.904c-0.314,0.047-0.596,0.089-0.865,0.13
		c-0.04-0.085-40.054,4.798-68.114,12.398c-20.487,5.549-35.054,15.627-39.152,25.779c-2.429,6.016-4.63,12.373-6.153,17.739
		c-19.587-1.522-26.539-2.384-30.122-2.828C26.86,365.14,25.571,364.98,23.998,364.888z"/>
</g>
<g>
</g>
<g>
</g>
<g>
</g>
<g>
</g>
<g>
</g>
<g>
</g>
<g>
</g>
<g>
</g>
<g>
</g>
<g>
</g>
<g>
</g>
<g>
</g>
<g>
</g>
<g>
</g>
<g>
</g>
</svg>
