<?xml version="1.0" encoding="iso-8859-1"?>
<!-- Generator: Adobe Illustrator 18.1.1, SVG Export Plug-In . SVG Version: 6.00 Build 0)  -->
<svg version="1.1" id="Capa_1" xmlns="http://www.w3.org/2000/svg" xmlns:xlink="http://www.w3.org/1999/xlink" x="0px" y="0px"
	 viewBox="0 0 31.535 31.535" style="enable-background:new 0 0 31.535 31.535;" xml:space="preserve">
<g>
	<path style="fill:#010002;" d="M26.65,0H4.884C4.392,0,3.992,0.399,3.992,0.894v29.748c0,0.492,0.4,0.893,0.892,0.893H26.65
		c0.493,0,0.893-0.398,0.893-0.893V0.894C27.542,0.399,27.143,0,26.65,0z M20.169,19.339h-2.092v-4.407v-0.918h-2.143v5.325h-0.886
		v-5.325h-2.14v5.325H11.93v-5.325H9.787v5.325H8.995v-5.325H6.853v5.325H5.775v-7.926h19.983v7.926h-4.027l0.661-0.313l-2.38-5.012
		l-1.935,0.918L20.169,19.339z M24.075,9.234l1.683-4.074v4.074H24.075z M25.758,1.785v2.896l-1.812-0.745l-2.117,5.128l0.42,0.171
		h-4.172V3.687h-2.143v5.548h-0.979V3.687h-2.14v5.548h-0.792V3.687H9.88v5.548H9.138V3.687H6.995v5.548h-1.22v-7.45
		C5.775,1.785,25.758,1.785,25.758,1.785z M5.775,21.518h19.983v3.524l-1.72-0.772l-2.272,5.062l0.935,0.418h-4.623v-5.285h-2.143
		v5.285h-0.886v-5.285h-2.141v5.285H11.93v-5.285H9.787v5.285H8.995v-5.285H6.853v5.285H5.775V21.518z M23.926,29.75l1.832-4.084
		v4.084H23.926z"/>
</g>
<g>
</g>
<g>
</g>
<g>
</g>
<g>
</g>
<g>
</g>
<g>
</g>
<g>
</g>
<g>
</g>
<g>
</g>
<g>
</g>
<g>
</g>
<g>
</g>
<g>
</g>
<g>
</g>
<g>
</g>
</svg>
