<?xml version="1.0" encoding="utf-8"?>


<!-- The icon can be used freely in both personal and commercial projects with no attribution required, but always appreciated. 
You may NOT sub-license, resell, rent, redistribute or otherwise transfer the icon without express written permission from iconmonstr.com -->


<!DOCTYPE svg PUBLIC "-//W3C//DTD SVG 1.1//EN" "http://www.w3.org/Graphics/SVG/1.1/DTD/svg11.dtd">

<svg version="1.1" xmlns="http://www.w3.org/2000/svg" xmlns:xlink="http://www.w3.org/1999/xlink" x="0px" y="0px"

	 width="512px" height="512px" viewBox="0 0 512 512" enable-background="new 0 0 512 512" xml:space="preserve">

<path id="tag-6-icon" d="M314.639,154.557h-61.002C207.594,75.742,88.569,75.005,58.695,123.716

	c-23.011,37.52,1.053,86.888,55.636,86.886c0.001,0,0.007,0,0.008,0c24.355-0.003,46.668-12.246,80.792-4.31v67.772l147.277,147.361

	L462,301.832L314.639,154.557z M114.336,185.125c-0.003,0-0.004,0-0.007,0c-34.278,0-46.989-27.472-33.572-48.671

	c18.682-29.518,100.637-33.496,142.016,18.103H195.13v25.714C157.633,173.42,133.801,185.122,114.336,185.125z M272.39,230.519

	c-14.023,14.021-37.873,6.762-41.989-12.363c20.404,1.595,32.654-12.405,30.82-29.333

	C279.604,193.741,286.018,216.89,272.39,230.519z"/>

</svg>

