<?xml version="1.0" encoding="iso-8859-1"?>
<!-- Generator: Adobe Illustrator 16.0.0, SVG Export Plug-In . SVG Version: 6.00 Build 0)  -->
<!DOCTYPE svg PUBLIC "-//W3C//DTD SVG 1.1//EN" "http://www.w3.org/Graphics/SVG/1.1/DTD/svg11.dtd">
<svg version="1.1" id="Capa_1" xmlns="http://www.w3.org/2000/svg" xmlns:xlink="http://www.w3.org/1999/xlink" x="0px" y="0px"
	 width="474.167px" height="474.167px" viewBox="0 0 474.167 474.167" style="enable-background:new 0 0 474.167 474.167;"
	 xml:space="preserve">
<g>
	<g>
		<path d="M335.75,51.268c-2.66-0.336-5.818-0.852-9.192-1.427c-1.387-5.818-7.927-8.347-16.175-11.499
			c-9.874-3.757-13.633-8.456-19.275-27.254c-5.626-18.805-40.407-7.995-54.034-7.995l38.061,12.221
			c0.934,4.699-4.709,11.277-10.343,14.795c-3.074,1.924-5.928,3.174-8.616,4.606c-11.321-2.675-19.102-4.599-19.102-4.599
			s-7.782,1.924-19.102,4.607c-2.69-1.433-5.542-2.683-8.618-4.607c-5.638-3.526-11.281-10.104-10.341-14.797l38.061-12.227
			c-13.627,0-48.399-10.81-54.034,7.995c-5.638,18.799-9.397,23.498-19.266,27.254c-8.259,3.152-14.799,5.681-16.18,11.499
			c-3.368,0.575-6.532,1.09-9.191,1.427c-27.493,3.519-26.082,34.528-33.836,42.289c-7.758,7.758-14.098,38.054-21.139,43.705
			c0,0,14.795,19.027,35.944,15.5c21.144-3.526,23.969-1.411,25.371,4.931c1.415,6.34,14.102,59.911,16.919,64.842
			c2.817,4.929,1.641,69.074-3.056,85.288c-4.703,16.214-38.527,117.005-19.498,166.344c0,0,7.993-21.143,19.498-25.021
			c7.844-2.638,37.778-10.184,60.213-17.064c1.495-1.41,4.673-3.514,10.891-7.605c21.043-13.838,79.968-52.609,96.755-79.051
			c-4.829-18.29-9.39-32.372-10.9-37.602c-4.708-16.214-5.87-80.351-3.058-85.288c2.813-4.938,15.509-58.502,16.92-64.842
			c1.41-6.342,4.231-8.458,25.375-4.931c21.143,3.526,35.938-15.5,35.938-15.5c-7.053-5.643-13.385-35.947-21.144-43.705
			C361.854,85.796,363.233,54.778,335.75,51.268z"/>
		<path d="M335.045,474.159c12.022-31.153,2.957-82.81-6.54-120.743c-16.787,22.285-54.99,49.563-90.226,72.898
			c19.972,7.782,67.119,19.412,77.27,22.822C327.05,453.017,335.045,474.159,335.045,474.159z"/>
	</g>
</g>
<g>
</g>
<g>
</g>
<g>
</g>
<g>
</g>
<g>
</g>
<g>
</g>
<g>
</g>
<g>
</g>
<g>
</g>
<g>
</g>
<g>
</g>
<g>
</g>
<g>
</g>
<g>
</g>
<g>
</g>
</svg>
