<?xml version='1.0' encoding='iso-8859-1'?>
<!DOCTYPE svg PUBLIC '-//W3C//DTD SVG 1.1//EN' 'http://www.w3.org/Graphics/SVG/1.1/DTD/svg11.dtd'>
<svg version="1.1" xmlns="http://www.w3.org/2000/svg" viewBox="0 0 297 297" xmlns:xlink="http://www.w3.org/1999/xlink" enable-background="new 0 0 297 297">
  <g>
    <path d="m266.382,226.067h-235.764c-5.636,0-10.206,4.569-10.206,10.206v50.521c0,5.636 4.57,10.206 10.206,10.206h235.764c5.636,0 10.206-4.57 10.206-10.206v-50.521c0-5.636-4.57-10.206-10.206-10.206zm-196.309,42.009c-1.521,1.52-3.624,2.388-5.777,2.388-2.144,0-4.246-0.868-5.767-2.388-1.521-1.522-2.398-3.624-2.398-5.777 0-2.154 0.877-4.256 2.398-5.776 1.511-1.521 3.623-2.389 5.767-2.389 2.153,0 4.256,0.867 5.777,2.389 1.52,1.521 2.388,3.622 2.388,5.776 0,2.153-0.868,4.256-2.388,5.777zm33.68,0c-1.521,1.52-3.624,2.388-5.776,2.388-2.144,0-4.246-0.868-5.767-2.388-1.521-1.522-2.398-3.624-2.398-5.777 0-2.154 0.877-4.256 2.398-5.776 1.521-1.521 3.623-2.389 5.767-2.389 2.152,0 4.256,0.867 5.776,2.389 1.521,1.521 2.389,3.622 2.389,5.776 0,2.153-0.869,4.256-2.389,5.777zm128.948,2.388h-67.361c-4.509,0-8.165-3.655-8.165-8.165 0-4.509 3.656-8.165 8.165-8.165h67.361c4.509,0 8.165,3.656 8.165,8.165 0,4.51-3.656,8.165-8.165,8.165z"/>
    <path d="m274.802,0h-252.604c-5.636,0-10.206,4.57-10.206,10.206v168.402c0,5.636 4.57,10.206 10.206,10.206h116.096v13.268h-23.475c-5.636,0-10.206,4.57-10.206,10.207h87.773c0-5.637-4.57-10.207-10.206-10.207h-23.475v-13.268h116.096c5.637,0 10.206-4.57 10.206-10.206v-168.402c0.001-5.636-4.568-10.206-10.205-10.206zm-106.14,120.344c-1.395,1.394-3.224,2.093-5.051,2.093-1.829,0-3.657-0.698-5.053-2.093-2.551-2.551-5.942-3.955-9.55-3.955-3.609,0-7.002,1.404-9.554,3.955-2.79,2.791-7.313,2.79-10.104,0-2.79-2.79-2.79-7.315 0.001-10.104 5.25-5.25 12.23-8.141 19.656-8.141 7.425,0 14.405,2.892 19.654,8.141 2.792,2.79 2.792,7.315 0.001,10.104zm17.633-20.885c-1.396,1.395-3.225,2.093-5.053,2.093-1.827,0-3.656-0.698-5.051-2.093-14.989-14.986-39.377-14.984-54.368,0-2.789,2.791-7.313,2.79-10.103,0-2.789-2.79-2.789-7.314 0.001-10.104 20.563-20.558 54.016-20.558 74.573,0 2.791,2.79 2.791,7.314 0.001,10.104zm17.777-20.876c-1.395,1.394-3.224,2.092-5.052,2.092-1.829,0-3.656-0.698-5.052-2.093-12.009-12.011-27.976-18.625-44.96-18.625-16.986,0-32.954,6.614-44.964,18.625-2.79,2.79-7.314,2.789-10.104,0.001-2.79-2.79-2.79-7.314-0.001-10.104 14.709-14.711 34.266-22.811 55.068-22.811 20.802,0 40.357,8.101 55.064,22.811 2.791,2.79 2.791,7.314 0.001,10.104z"/>
  </g>
</svg>
