<?xml version="1.0" encoding="UTF-8" ?>
<!DOCTYPE svg PUBLIC "-//W3C//DTD SVG 1.1//EN" "http://www.w3.org/Graphics/SVG/1.1/DTD/svg11.dtd">
<svg width="329pt" height="310pt" viewBox="0 0 329 310" version="1.1" xmlns="http://www.w3.org/2000/svg">
<path fill="#07dba9" d=" M 0.00 0.00 L 329.00 0.00 L 329.00 310.00 L 0.00 310.00 L 0.00 0.00 Z" />
<path fill="#ffffff" d=" M 174.66 16.54 C 200.99 16.39 227.31 16.52 253.64 16.47 C 253.69 34.07 253.62 51.66 253.67 69.25 C 273.05 69.25 292.43 69.23 311.80 69.26 C 311.78 93.09 311.61 116.92 311.65 140.75 C 305.27 141.63 298.82 141.03 292.42 141.27 C 292.51 152.61 292.25 163.96 292.55 175.30 C 298.93 175.22 305.32 175.21 311.70 175.05 C 311.72 198.68 311.71 222.31 311.71 245.94 C 292.39 246.53 273.03 246.11 253.70 246.26 C 253.49 263.41 253.54 280.56 253.38 297.71 C 227.15 297.75 200.92 297.77 174.69 297.82 C 174.56 292.62 174.63 287.41 174.71 282.21 C 168.58 282.18 162.44 282.16 156.31 282.22 C 156.30 287.34 156.37 292.45 156.43 297.57 C 130.10 297.66 103.78 297.59 77.45 297.60 C 77.43 280.65 77.53 263.71 77.45 246.76 C 58.12 246.79 38.80 246.81 19.48 246.66 C 19.53 222.82 20.16 199.00 20.31 175.16 C 26.42 175.24 32.52 175.29 38.63 175.40 C 38.65 164.01 38.52 152.63 38.61 141.24 C 32.55 141.27 26.48 141.21 20.42 141.29 C 20.21 117.38 20.43 93.46 20.46 69.54 C 39.49 69.50 58.53 69.46 77.56 69.44 C 77.62 52.11 77.81 34.78 77.64 17.46 C 101.41 16.95 125.20 17.41 148.97 17.08 C 151.44 16.93 153.97 16.61 156.38 17.39 C 156.24 22.85 156.41 28.31 156.41 33.76 C 162.41 34.09 168.40 34.30 174.40 34.29 C 174.76 28.38 174.58 22.46 174.66 16.54 Z" />
<path fill="#07dba9" d=" M 98.20 35.39 C 110.99 35.42 123.78 35.47 136.57 35.37 C 136.52 41.38 136.33 47.41 136.69 53.41 C 156.13 53.34 175.58 53.57 195.01 53.30 L 195.53 52.53 C 195.76 46.88 195.56 41.21 195.58 35.56 C 207.91 35.57 220.23 35.63 232.55 35.53 C 232.47 52.48 232.53 69.43 232.52 86.38 C 233.23 87.07 233.92 87.78 234.59 88.51 C 253.30 88.50 272.01 88.59 290.71 88.46 C 290.97 99.54 290.71 110.64 290.76 121.72 C 284.30 121.97 277.79 121.24 271.38 122.20 C 271.51 146.14 271.50 170.09 271.39 194.03 C 277.82 194.95 284.37 194.17 290.86 194.43 C 290.73 205.45 290.78 216.48 290.84 227.51 C 271.46 227.47 252.08 227.62 232.70 227.43 C 232.58 184.65 232.70 141.86 232.64 99.08 C 232.58 95.70 232.52 92.29 233.18 88.96 C 232.80 88.58 232.42 88.21 232.04 87.84 C 230.06 88.19 228.06 88.45 226.05 88.43 C 215.84 88.33 205.63 88.44 195.42 88.36 C 195.48 106.01 195.52 123.66 195.40 141.32 C 175.50 141.38 155.60 141.33 135.70 141.34 C 135.53 123.68 135.61 106.01 135.65 88.35 C 122.98 88.51 110.31 88.21 97.64 88.51 C 97.65 134.85 97.65 181.19 97.64 227.52 C 110.31 227.83 122.98 227.53 135.66 227.68 C 135.53 210.27 135.69 192.85 135.57 175.43 C 155.48 175.47 175.39 175.37 195.30 175.48 C 195.34 192.89 195.36 210.29 195.28 227.70 C 207.66 227.61 220.04 227.63 232.43 227.69 C 232.66 245.29 232.41 262.90 232.55 280.51 C 220.23 280.43 207.91 280.46 195.59 280.49 C 195.64 274.65 195.60 268.81 195.62 262.97 C 175.60 262.59 155.56 262.85 135.53 262.84 C 135.43 268.73 135.46 274.62 135.50 280.50 C 123.09 280.44 110.67 280.44 98.25 280.51 C 98.26 262.87 98.00 245.23 98.39 227.60 C 79.05 227.45 59.70 227.48 40.36 227.58 C 40.43 216.50 40.45 205.42 40.34 194.35 C 46.69 194.46 53.03 194.49 59.38 194.33 C 59.60 170.31 59.26 146.28 59.55 122.26 C 53.24 121.14 46.76 121.99 40.38 121.77 C 40.42 110.67 40.44 99.57 40.37 88.46 C 59.70 88.55 79.04 88.59 98.37 88.44 C 97.99 70.76 98.32 53.07 98.20 35.39 Z" />
<path fill="#db07a7" d=" M 97.64 88.51 C 110.31 88.21 122.98 88.51 135.65 88.35 C 135.61 106.01 135.53 123.68 135.70 141.34 C 155.60 141.33 175.50 141.38 195.40 141.32 C 195.52 123.66 195.48 106.01 195.42 88.36 C 205.63 88.44 215.84 88.33 226.05 88.43 C 228.06 88.45 230.06 88.19 232.04 87.84 C 232.42 88.21 232.80 88.58 233.18 88.96 C 232.52 92.29 232.58 95.70 232.64 99.08 C 232.70 141.86 232.58 184.65 232.70 227.43 L 232.70 227.69 L 232.43 227.69 C 220.04 227.63 207.66 227.61 195.28 227.70 C 195.36 210.29 195.34 192.89 195.30 175.48 C 175.39 175.37 155.48 175.47 135.57 175.43 C 135.69 192.85 135.53 210.27 135.66 227.68 C 122.98 227.53 110.31 227.83 97.64 227.52 C 97.65 181.19 97.65 134.85 97.64 88.51 Z" />
</svg>
