<?xml version="1.0" encoding="UTF-8" ?>
<!DOCTYPE svg PUBLIC "-//W3C//DTD SVG 1.1//EN" "http://www.w3.org/Graphics/SVG/1.1/DTD/svg11.dtd">
<svg width="100%" height="100%" viewBox="0 0 600 400" version="1.1" xmlns="http://www.w3.org/2000/svg">
<!-- <path fill="#ffffff" d=" M 0.00 0.00 L 600.00 0.00 L 600.00 400.00 L 0.00 400.00 L 0.00 0.00 Z" /> -->
<path fill="#07DBAA" d=" M 225.77 68.21 C 238.72 67.49 251.73 67.92 264.71 67.93 C 264.74 73.85 264.77 79.77 264.68 85.69 C 284.26 85.99 303.85 85.74 323.43 85.82 C 323.45 80.01 323.44 74.20 323.44 68.39 C 335.88 68.37 348.31 68.38 360.75 68.38 C 360.77 86.02 360.73 103.66 360.77 121.30 C 380.28 121.42 399.79 121.10 419.30 121.46 C 419.07 132.40 419.44 143.36 419.14 154.29 C 418.91 154.49 418.45 154.89 418.22 155.09 C 412.04 155.48 405.83 155.03 399.65 155.29 C 399.65 179.09 399.75 202.89 399.60 226.68 C 406.16 227.43 412.79 226.24 419.32 227.37 C 419.16 238.45 419.22 249.53 419.29 260.60 C 400.09 261.02 380.86 260.52 361.66 260.84 C 361.46 261.06 361.06 261.48 360.85 261.69 C 360.60 279.01 360.84 296.35 360.75 313.68 C 348.31 313.68 335.88 313.70 323.45 313.67 C 323.44 307.86 323.45 302.05 323.43 296.24 C 303.52 296.24 283.62 296.21 263.71 296.25 C 263.68 302.06 263.70 307.87 263.68 313.67 C 251.03 313.61 238.38 313.85 225.74 313.54 C 225.78 295.94 225.87 278.33 225.69 260.73 C 206.44 260.77 187.20 260.75 167.95 260.74 C 167.63 249.64 168.03 238.54 167.73 227.44 C 174.13 226.22 180.66 227.11 187.13 226.78 C 187.19 202.94 187.25 179.09 187.10 155.24 C 180.85 155.23 174.59 155.14 168.34 155.31 C 167.91 152.58 167.70 149.81 167.79 147.04 C 167.95 138.47 167.66 129.89 167.95 121.32 C 187.23 121.25 206.51 121.38 225.79 121.25 C 225.76 103.57 225.80 85.89 225.77 68.21 Z" />
<path fill="#DB07A6" d=" M 225.77 121.39 C 238.40 121.24 251.04 121.35 263.67 121.33 C 263.71 138.96 263.64 156.60 263.70 174.23 C 283.61 174.27 303.51 174.25 323.42 174.24 C 323.51 156.60 323.43 138.97 323.46 121.33 C 335.89 121.30 348.31 121.32 360.74 121.32 C 360.77 167.79 360.74 214.27 360.76 260.74 C 348.24 260.74 335.73 260.75 323.22 260.74 C 323.21 243.32 323.16 225.91 323.24 208.49 C 303.39 208.21 283.53 208.39 263.68 208.41 C 263.69 225.85 263.68 243.29 263.68 260.73 C 251.04 260.72 238.41 260.83 225.77 260.67 C 225.80 214.24 225.80 167.82 225.77 121.39 Z" />
</svg>
