<?xml version="1.0"?>
<svg width="252" height="246" xmlns="http://www.w3.org/2000/svg" xmlns:svg="http://www.w3.org/2000/svg">
 <g>
  <title>Layer 1</title>
  <path id="svg_2" d="m58.040009,0.416458c12.949997,-0.720001 25.959991,-0.290001 38.939987,-0.279999c0.029999,5.919998 0.059998,11.839996 -0.029999,17.760002c19.580017,0.299995 39.170013,0.049995 58.75,0.129997c0.02002,-5.809998 0.01001,-11.620003 0.01001,-17.43c12.440002,-0.019997 24.869995,-0.010002 37.309998,-0.010002c0.019989,17.639999 -0.019989,35.280014 0.019989,52.920013c19.51001,0.120003 39.02002,-0.199997 58.529999,0.159996c-0.22998,10.939987 0.140015,21.900009 -0.159943,32.829987c-0.22998,0.200012 -0.689972,0.600021 -0.919983,0.800003c-6.179993,0.389999 -12.390015,-0.059998 -18.570007,0.199997c0,23.800003 0.100006,47.600014 -0.050049,71.389992c6.560059,0.75 13.190002,-0.439972 19.720001,0.690002c-0.159943,11.080017 -0.100006,22.160004 -0.029999,33.230026c-19.200012,0.419968 -38.430023,-0.080032 -57.630005,0.23999c-0.200012,0.219986 -0.600006,0.639999 -0.809998,0.849991c-0.25,17.320023 -0.01001,34.660019 -0.100006,51.98999c-12.440002,0 -24.869995,0.02002 -37.299988,-0.009979c-0.01001,-5.810028 0,-11.620026 -0.02002,-17.430023c-19.910004,0 -39.809998,-0.029984 -59.720001,0.010025c-0.029999,5.809982 -0.009979,11.61998 -0.029999,17.419998c-12.649994,-0.060028 -25.299988,0.180008 -37.939987,-0.130005c0.039978,-17.600006 0.12999,-35.210022 -0.050003,-52.809982c-19.25,0.039963 -38.490005,0.019989 -57.740006,0.009964c-0.319992,-11.099976 0.079987,-22.199982 -0.220001,-33.299973c6.400009,-1.219986 12.930008,-0.330002 19.400009,-0.660004c0.059998,-23.840012 0.119995,-47.68998 -0.029999,-71.540001c-6.25,-0.01001 -12.51001,-0.100006 -18.76001,0.069992c-0.429993,-2.729996 -0.639999,-5.5 -0.550003,-8.270004c0.160004,-8.569977 -0.12999,-17.149986 0.160004,-25.719986c19.279999,-0.07 38.559998,0.060013 57.839996,-0.07c-0.029999,-17.68 0.01001,-35.360001 -0.019989,-53.040001l0,-0.000008z" fill="#07DBAA"/>
  <path id="svg_3" d="m58.040009,55.596458c12.62999,-0.150002 25.269989,-0.040001 37.900009,-0.059998c0.039978,17.630005 -0.029999,35.270004 0.029999,52.899994c19.909973,0.040009 39.809998,0.019989 59.720001,0.01001c0.089996,-17.639999 0.009979,-35.270004 0.039978,-52.910004c12.430023,-0.029999 24.850006,-0.010002 37.279999,-0.010002c0.029999,46.469994 0,92.950012 0.02002,139.419983c-12.52002,0 -25.029999,0.010025 -37.540009,0c-0.01001,-17.419983 -0.059998,-34.830017 0.019989,-52.249969c-19.849976,-0.279999 -39.709991,-0.100037 -59.559998,-0.080002c0.01001,17.440002 0,34.87999 0,52.320007c-12.639999,-0.010025 -25.269989,0.09996 -37.909988,-0.060013c0.029999,-46.429993 0.029999,-92.849998 0,-139.280006z" fill="#DB07A6"/>
 </g>
</svg>