<?xml version="1.0"?>
<svg width="640" height="480" xmlns="http://www.w3.org/2000/svg" xmlns:svg="http://www.w3.org/2000/svg" xmlns:xlink="http://www.w3.org/1999/xlink">
 <!-- Created with SVG-edit - http://svg-edit.googlecode.com/ -->
 <defs>
  <symbol id="svg_1" viewBox="0 0 600 400" height="100%" width="100%" xmlns="http://www.w3.org/2000/svg">
   <!-- <path fill="#ffffff" d=" M 0.00 0.00 L 600.00 0.00 L 600.00 400.00 L 0.00 400.00 L 0.00 0.00 Z" /> -->
   <path d="m225.770004,68.209999c12.949997,-0.720001 25.959991,-0.290001 38.939987,-0.279999c0.029999,5.919998 0.059998,11.839996 -0.029999,17.760002c19.580017,0.299995 39.170013,0.049995 58.75,0.129997c0.02002,-5.809998 0.01001,-11.620003 0.01001,-17.43c12.440002,-0.019997 24.869995,-0.010002 37.309998,-0.010002c0.019989,17.639999 -0.019989,35.280006 0.019989,52.920006c19.51001,0.119995 39.02002,-0.200005 58.529999,0.159996c-0.22998,10.939995 0.140015,21.900002 -0.159973,32.829994c-0.230011,0.200012 -0.690002,0.600006 -0.920013,0.800003c-6.179993,0.389999 -12.390015,-0.059998 -18.570007,0.199997c0,23.800003 0.100006,47.600006 -0.049988,71.389999c6.559998,0.75 13.190002,-0.439987 19.720001,0.690002c-0.160004,11.080002 -0.100006,22.160004 -0.029999,33.230011c-19.200012,0.419983 -38.430023,-0.080017 -57.630005,0.23999c-0.200012,0.220001 -0.600006,0.640015 -0.809998,0.850006c-0.25,17.320007 -0.01001,34.660004 -0.100006,51.98999c-12.440002,0 -24.869995,0.02002 -37.299988,-0.009979c-0.01001,-5.810028 0,-11.620026 -0.02002,-17.430023c-19.910004,0 -39.809998,-0.029999 -59.720001,0.01001c-0.029999,5.809998 -0.009979,11.619995 -0.029999,17.420013c-12.649994,-0.060028 -25.299988,0.179993 -37.939987,-0.130005c0.039993,-17.600006 0.12999,-35.210022 -0.050003,-52.809998c-19.25,0.039978 -38.490005,0.019989 -57.740005,0.009979c-0.319992,-11.099991 0.080002,-22.199997 -0.220001,-33.299988c6.400009,-1.220001 12.930008,-0.330002 19.400009,-0.660004c0.059998,-23.839996 0.119995,-47.690002 -0.029999,-71.539993c-6.25,-0.01001 -12.51001,-0.100006 -18.76001,0.069992c-0.429993,-2.729996 -0.639999,-5.5 -0.550003,-8.270004c0.160004,-8.569992 -0.12999,-17.149994 0.160004,-25.719994c19.279999,-0.07 38.559998,0.059998 57.839996,-0.07c-0.029999,-17.68 0.01001,-35.360001 -0.019989,-53.040001z" fill="#07DBAA"/>
   <path d="m225.770004,121.389999c12.62999,-0.150002 25.269989,-0.040001 37.900009,-0.059998c0.039978,17.630005 -0.029999,35.270004 0.029999,52.899994c19.909973,0.040009 39.809998,0.020004 59.720001,0.01001c0.089996,-17.639999 0.009979,-35.270004 0.039978,-52.910004c12.430023,-0.029999 24.850006,-0.010002 37.279999,-0.010002c0.029999,46.469994 0,92.950005 0.02002,139.419991c-12.52002,0 -25.029999,0.01001 -37.540009,0c-0.01001,-17.419983 -0.059998,-34.829987 0.019989,-52.249985c-19.849976,-0.279999 -39.709991,-0.100006 -59.559998,-0.080002c0.01001,17.440002 0,34.87999 0,52.320007c-12.639999,-0.01001 -25.269989,0.099976 -37.909988,-0.059998c0.029999,-46.430008 0.029999,-92.850006 0,-139.280014z" fill="#DB07A6"/>
  </symbol>
 </defs>
 <g>
  <title>Layer 1</title>
  <use x="562.435612" y="298.880138" transform="matrix(0.7421702532850233,0,0,0.6861782605434995,-546.8050665890639,-270.09286141000956) " xlink:href="#svg_1" id="svg_2"/>
 </g>
</svg>