<?xml version="1.0" encoding="iso-8859-1"?>
<!-- Generator: Adobe Illustrator 18.1.1, SVG Export Plug-In . SVG Version: 6.00 Build 0)  -->
<svg xmlns="http://www.w3.org/2000/svg" xmlns:xlink="http://www.w3.org/1999/xlink" version="1.1" id="Capa_1" x="0px" y="0px" viewBox="0 0 433.269 433.269" style="enable-background:new 0 0 433.269 433.269;" xml:space="preserve" width="512px" height="512px">
<g>
	<g>
		<path d="M199.672,93.47c25.759,0,46.731-20.972,46.731-46.731C246.404,20.972,225.432,0,199.672,0    c-25.784,0-46.747,20.972-46.747,46.739S173.888,93.47,199.672,93.47z" fill="#ff2d54"/>
		<path d="M162.939,137.617l-0.358,3.731c-1.211,12.364-1.431,24.467-0.667,35.953    c1.203,0.626,23.817,12.03,57.802,22.183c4.739,1.374,9.819,2.691,15.005,3.975c-5.641-17.623-7.584-35.432-5.609-52.998    l0.512-4.934l4.641,1.764c12.542,4.78,24.971,9.315,38.733,14.298l1.284,0.48c12.225,4.463,24.906,9.063,37.261,13.778    c2.048,0.772,3.999,1.179,5.828,1.179c7.348,0,11.811-6.413,12.998-12.746c1.349-7.43-1.455-16.534-10.819-20.102    c-12.778-4.861-25.849-9.6-38.505-14.209l-0.488-0.163c-20.338-7.405-71.897-27.198-74.352-27.694    c-15.176-3.081-22.744,3.877-33.026,3.772c-37.96-0.358-65.102-23.662-78.49-68.443c-2.138-7.121-7.828-11.396-15.184-11.396    c-5.779,0-11.323,2.593-14.444,6.787c-2.707,3.625-3.341,8.161-1.853,13.128c15.875,53.202,49.999,85.594,96.039,91.203    L162.939,137.617z" fill="#ff2d54"/>
		<path d="M341.874,398.471c-68.865-48.357-103.948-133.016-103.948-133.016l1.723-2.13    c1.967-2.382,3.438-6.519,4.243-9.99c-40.984-11.047-60.111-19.379-71.857-24.524l9.023,33.116l-1.439,1.187    c-13.924,11.347-32.88,29.515-36.749,55.599c-4.406,29.653,9.177,57.136,23.475,82.757c3.772,6.69,9.689,10.405,16.688,10.405    c8.023,0,16.184-4.747,20.313-11.795c3.674-6.275,3.601-13.469-0.195-20.265l-1.146-2.073    c-8.381-14.94-17.062-30.376-17.59-48.064c-0.276-10.031,5.34-19.874,17.233-30.051l3.869-3.365l2.089,4.698    c21.321,47.471,53.242,86.667,103.452,127.163c4.292,3.414,9.006,5.145,14.087,5.145c9.876,0,19.752-6.844,22.931-15.859    C350.539,410.412,348.32,403.698,341.874,398.471z" fill="#ff2d54"/>
		<path d="M169.223,216.602c32.652,13.697,99.469,36.79,178.528,36.79c7.6,0,15.298-0.195,23.093-0.667    l-19.435-9.99l18.143-11.754c-100.876,5.909-187.282-32.092-206.897-41.407C163.777,199.76,166.727,212.473,169.223,216.602z" fill="#ff2d54"/>
	</g>
</g>
<g>
</g>
<g>
</g>
<g>
</g>
<g>
</g>
<g>
</g>
<g>
</g>
<g>
</g>
<g>
</g>
<g>
</g>
<g>
</g>
<g>
</g>
<g>
</g>
<g>
</g>
<g>
</g>
<g>
</g>
</svg>
